<svg id="_x31__x2C_5" enable-background="new 0 0 24 24" height="512" viewBox="0 0 24 24" width="512" xmlns="http://www.w3.org/2000/svg"><g><path d="m16.25 3.457c0-1.398-1.123-2.53-2.507-2.53h-10.486c-1.385 0-2.507 1.133-2.507 2.53v14.263c0 1.398 1.123 2.53 2.507 2.53h11.169c1.007 0 1.824-.824 1.824-1.84z" fill="#eceff1"/></g><g><circle cx="8.5" cy="5" fill="#90a4ae" r="1.8"/></g><g><path d="m11.425 11.8h-5.85c-.373 0-.675-.302-.675-.675v-.45c0-1.365 1.11-2.475 2.475-2.475h2.25c1.365 0 2.475 1.11 2.475 2.475v.45c0 .373-.302.675-.675.675z" fill="#90a4ae"/></g><g><path d="m17.5 23.35c-3.226 0-5.85-2.624-5.85-5.85s2.624-5.85 5.85-5.85 5.85 2.624 5.85 5.85-2.624 5.85-5.85 5.85z" fill="#f44336"/></g><g><path d="m8.5 7c-1.103 0-2-.897-2-2s.897-2 2-2 2 .897 2 2-.897 2-2 2zm0-2.5c-.275 0-.5.224-.5.5s.225.5.5.5.5-.224.5-.5-.225-.5-.5-.5z"/></g><g><path d="m11.75 12c-.414 0-.75-.336-.75-.75v-.5c0-.689-.561-1.25-1.25-1.25h-2.5c-.689 0-1.25.561-1.25 1.25v.5c0 .414-.336.75-.75.75s-.75-.336-.75-.75v-.5c0-1.517 1.233-2.75 2.75-2.75h2.5c1.517 0 2.75 1.233 2.75 2.75v.5c0 .414-.336.75-.75.75z"/></g><g><path d="m17.5 24c-3.584 0-6.5-2.916-6.5-6.5s2.916-6.5 6.5-6.5 6.5 2.916 6.5 6.5-2.916 6.5-6.5 6.5zm0-11.5c-2.757 0-5 2.243-5 5s2.243 5 5 5 5-2.243 5-5-2.243-5-5-5z"/></g><g><path d="m15.75 20c-.192 0-.384-.073-.53-.22-.293-.293-.293-.768 0-1.061l3.5-3.5c.293-.293.768-.293 1.061 0s.293.768 0 1.061l-3.5 3.5c-.147.147-.339.22-.531.22z"/></g><g><path d="m19.25 20c-.192 0-.384-.073-.53-.22l-3.5-3.5c-.293-.293-.293-.768 0-1.061s.768-.293 1.061 0l3.5 3.5c.293.293.293.768 0 1.061-.147.147-.339.22-.531.22z"/></g><g><path d="m8.25 18h-3.5c-.414 0-.75-.336-.75-.75s.336-.75.75-.75h3.5c.414 0 .75.336.75.75s-.336.75-.75.75z"/></g><g><path d="m8.25 21h-5.5c-1.517 0-2.75-1.233-2.75-2.75v-15.5c0-1.517 1.233-2.75 2.75-2.75h11.5c1.517 0 2.75 1.233 2.75 2.75v5.56c0 .414-.336.75-.75.75s-.75-.336-.75-.75v-5.56c0-.689-.561-1.25-1.25-1.25h-11.5c-.689 0-1.25.561-1.25 1.25v15.5c0 .689.561 1.25 1.25 1.25h5.5c.414 0 .75.336.75.75s-.336.75-.75.75z"/></g><g><path d="m9.25 15h-4.5c-.414 0-.75-.336-.75-.75s.336-.75.75-.75h4.5c.414 0 .75.336.75.75s-.336.75-.75.75z"/></g></svg>