<svg id="Capa_1" enable-background="new 0 0 511.472 511.472" height="512" viewBox="0 0 511.472 511.472" width="512" xmlns="http://www.w3.org/2000/svg"><g><g><g><path d="m70.107 347.303h91.729v144.996h-91.729z" fill="#f9e997"/></g><g><path d="m209.871 286.368h91.729v210.183h-91.729z" fill="#f5d844"/></g><g><path d="m255.736 286.368h45.865v210.183h-45.865z" fill="#ecbd2c"/></g><g><path d="m349.636 187.579h91.729v315.865h-91.729z" fill="#e68f21"/></g><g><path d="m25.359 481.472h460.754v30h-460.754z" fill="#6b66d0"/></g><g><path d="m255.736 481.472h230.377v30h-230.377z" fill="#524798"/></g></g><g><path d="m92.943 227.551h-67.584v30h67.584c59.384 0 115.89-18.337 162.792-50.974l8.59-19.569-8.59-18.102c-44.968 37.312-102.205 58.645-162.792 58.645z" fill="#c3edb0"/><path d="m384.518 0-90.203 26.966 8.594 28.743 41.335-12.357-26.391 49.383c-15.885 29.723-37.104 55.418-62.117 76.172v37.67c36.328-25.279 66.896-59.136 88.576-99.703l26.192-49.012 12.237 40.932 28.742-8.593z" fill="#73cbb1"/></g></g></svg>