<svg height="512" viewBox="0 0 64 64" width="512" xmlns="http://www.w3.org/2000/svg"><rect fill="#ff9811" height="26" rx="2" width="58" x="3" y="35"/><path d="m51 39h4v4h-4z" fill="#00ccb3"/><path d="m43 39h4v4h-4z" fill="#3d9ae2"/><circle cx="19" cy="41" fill="#3d9ae2" r="2"/><path d="m35 39h4v4h-4z" fill="#ff5023"/><circle cx="11" cy="41" fill="#ff5023" r="2"/><rect fill="#cc7400" height="6" rx="1" width="42" x="11" y="49"/><path d="m7 23h4v12h-4z" fill="#ee8700"/><path d="m53 23h4v12h-4z" fill="#ee8700"/><path d="m53 3v32h-42v-32l3 4 3-4 3 4 3-4 3 4 3-4 3 4 3-4 3 4 3-4 3 4 3-4 3 4z" fill="#e6e7e8"/><path d="m53 7.01v27.99h-22.46a109.279 109.279 0 0 0 22.46-27.99z" fill="#d8d7da"/><circle cx="32" cy="21" fill="#ffd422" r="10"/><path d="m53 23h2v12h-2z" fill="#cc7400"/><path d="m9 23h2v12h-2z" fill="#cc7400"/><path d="m33 20h-2a1 1 0 0 1 0-2h2a1 1 0 0 1 1 1h2a3 3 0 0 0 -3-3v-2h-2v2a3 3 0 0 0 0 6h2a1 1 0 0 1 0 2h-2a1 1 0 0 1 -1-1h-2a3 3 0 0 0 3 3v2h2v-2a3 3 0 0 0 0-6z" fill="#ff5023"/><path d="m32 32a11 11 0 1 1 11-11 11.013 11.013 0 0 1 -11 11zm0-20a9 9 0 1 0 9 9 9.011 9.011 0 0 0 -9-9z" fill="#ff9811"/></svg>